<svg xmlns="http://www.w3.org/2000/svg" xmlns:xlink="http://www.w3.org/1999/xlink" xml:space="preserve" version="1.1" style="shape-rendering:geometricPrecision;text-rendering:geometricPrecision;image-rendering:optimizeQuality;" viewBox="0 0 180 361.25" x="0px" y="0px" fill-rule="evenodd" clip-rule="evenodd"><defs><style type="text/css">
   
    .fil0 {fill:black}
   
  </style></defs><g><path class="fil0" d="M40 99l18 0 6 -16c1,-3 5,-6 9,-6l34 0c4,0 8,3 9,6l6 16 18 0c13,0 24,8 24,19l0 106c0,6 -13,12 -19,16l11 14 2 11 22 24 -20 0 -5 -5 -130 0 -5 5 -20 0 22 -24 2 -10 9 -16c-6,-3 -17,-9 -17,-15l0 -106c0,-11 11,-19 24,-19zm62 -24l10 -16 0 -9 -44 0 0 9 10 16 24 0zm10 -27l0 -8 -44 0 0 8 44 0zm30 -21c3,0 5,2 5,5 0,2 -2,4 -5,4 -2,0 -4,-2 -4,-4 0,-3 2,-5 4,-5zm1 -20c5,0 8,3 8,8 0,4 -3,8 -8,8 -4,0 -8,-4 -8,-8 0,-5 4,-8 8,-8zm-19 5c5,-1 9,3 9,8 0,7 -8,11 -14,6 -4,4 -10,5 -16,3 -1,4 -6,8 -11,8 -7,0 -13,-6 -13,-13 0,-8 8,-14 16,-12 3,-16 26,-16 29,0zm14 227l-5 0 13 20 5 0 -13 -20zm-9 0l-5 0 10 20 5 0 -10 -20zm-9 0l-5 0 7 20 5 0 -7 -20zm-9 0l-5 0 5 20 5 0 -5 -20zm-9 0l-5 0 2 20 5 0 -2 -20zm-60 0l5 0 -13 20 -5 0 13 -20zm9 0l5 0 -10 20 -5 0 10 -20zm9 0l5 0 -7 20 -5 0 7 -20zm9 0l5 0 -5 20 -5 0 5 -20zm9 0l5 0 -2 20 -5 0 2 -20zm10 0l5 0 0 20 -5 0 0 -20zm-45 25l94 0 8 9 -110 0 8 -9zm47 -181c4,0 8,4 8,9 0,4 -4,8 -8,8 -4,0 -8,-4 -8,-8 0,-5 4,-9 8,-9zm36 23l-72 0c-2,3 -1,8 4,8l64 0c5,0 6,-5 4,-8zm-82 96c8,0 14,7 14,14 0,8 -6,15 -14,15 -8,0 -14,-7 -14,-15 0,-7 6,-14 14,-14zm92 0c8,0 14,7 14,14 0,8 -6,15 -14,15 -8,0 -14,-7 -14,-15 0,-7 6,-14 14,-14zm-102 -83l112 0c4,0 7,3 7,6l0 38c0,3 -3,6 -7,6l-112 0c-4,0 -7,-3 -7,-6l0 -38c0,-3 3,-6 7,-6z"/></g><text x="0" y="304" fill="#000000" font-size="5px" font-weight="bold" font-family="'Helvetica Neue', Helvetica, Arial-Unicode, Arial, Sans-serif">Created by kareemovic</text><text x="0" y="309" fill="#000000" font-size="5px" font-weight="bold" font-family="'Helvetica Neue', Helvetica, Arial-Unicode, Arial, Sans-serif">from the Noun Project</text></svg>