<svg xmlns="http://www.w3.org/2000/svg" xmlns:xlink="http://www.w3.org/1999/xlink" version="1.1" x="0px" y="0px" viewBox="0 0 64 80" style="enable-background:new 0 0 64 64;" xml:space="preserve"><path d="M58.39,28.058l-5.993-3.996l-12.759-2.734c0.078-0.254,0.145-0.509,0.197-0.766l5.924-6.911l3.03-5.993L52.6,4.8L51.4,3.2  l-4.189,3.142l-2.872,5.743l-5.46,0.78c-0.256-1.162-1.003-2.446-2.862-3.203c0.371-5.698,9.974-6.656,10.073-6.666l-0.182-1.992  c-0.468,0.043-11.051,1.092-11.856,8.135C33.445,9.049,32.763,9,32,9s-1.445,0.049-2.054,0.139  c-0.805-7.043-11.388-8.092-11.856-8.135l-0.182,1.992c0.099,0.01,9.702,0.968,10.073,6.666c-1.859,0.757-2.606,2.041-2.862,3.203  l-5.46-0.78l-2.872-5.743L12.6,3.2L11.4,4.8l3.811,2.858l2.895,5.789l6.06,7.114c0.052,0.257,0.12,0.512,0.197,0.766l-12.759,2.734  L5.61,28.058L0.804,29.02l0.393,1.961l5.193-1.039l5.787-3.857L22,28.764v1.796l-10.483,9.61C10.553,41.054,10,42.311,10,43.618  c0,1.133,0.411,2.228,1.157,3.08l5.757,6.579l-1.891,8.506l1.953,0.434l2.109-9.494l-5.596-6.396L22,41.684V46  c0,4.419,2.918,8.94,7.014,11.004C29.616,58.926,30,60.869,30,63h2c0-4.621-1.643-8.45-3.383-12.506C26.453,45.449,24,39.73,24,31  v-5c0-1.654,1.346-3,3-3h5h5c1.654,0,3,1.346,3,3v5c0,8.73-2.453,14.449-4.617,19.494C33.643,54.55,32,58.379,32,63h2  c0-2.131,0.384-4.074,0.986-5.996C39.082,54.94,42,50.419,42,46v-4.316l8.51,4.642l-5.596,6.396l2.109,9.494l1.953-0.434  l-1.891-8.506l5.757-6.579C53.589,45.846,54,44.751,54,43.618c0-1.308-0.553-2.564-1.517-3.449L42,30.56v-1.796l9.823-2.679  l5.787,3.857l5.193,1.039l0.393-1.961L58.39,28.058z M38.926,14.878l3.586-0.512l-2.598,3.031c-0.079-0.301-0.216-0.591-0.461-0.842  c-0.239-0.245-0.541-0.402-0.893-0.485C38.749,15.668,38.863,15.264,38.926,14.878z M32,11c5,0,5,2.258,5,3s0,3-5,3s-5-2.258-5-3  S27,11,32,11z M24.546,16.554c-0.245,0.252-0.382,0.542-0.461,0.842l-2.598-3.031l3.586,0.512c0.063,0.386,0.177,0.791,0.365,1.192  C25.087,16.152,24.784,16.309,24.546,16.554z M16.229,25.117l6.325-1.355C22.211,24.438,22,25.191,22,26v0.691L16.229,25.117z   M12.251,44.724C12.093,44.378,12,44.004,12,43.618c0-0.749,0.316-1.469,0.868-1.975L22,33.273v6.133L12.251,44.724z M26.779,51.283  c0.379,0.884,0.743,1.738,1.086,2.582C25.527,51.887,24,48.914,24,46v-1.89C24.838,46.75,25.834,49.08,26.779,51.283z M32,21h-5  c-0.213,0-0.416,0.037-0.622,0.063C26.131,20.384,26,19.692,26,19c0-0.123-0.004-0.25-0.007-0.377  c-0.006-0.181-0.014-0.456,0.006-0.623H26c0.657,0,1.012,0.125,1.549,0.315C28.411,18.621,29.485,19,32,19s3.589-0.379,4.451-0.685  C36.988,18.125,37.343,18,38,18h0.001c0.02,0.167,0.012,0.442,0.006,0.623C38.004,18.75,38,18.877,38,19  c0,0.692-0.131,1.384-0.378,2.063C37.416,21.037,37.213,21,37,21H32z M36.135,53.865c0.343-0.844,0.707-1.699,1.086-2.582  C38.166,49.08,39.162,46.75,40,44.11V46C40,48.914,38.473,51.887,36.135,53.865z M52,43.618c0,0.386-0.093,0.76-0.251,1.106  L42,39.406v-6.133l9.132,8.369C51.684,42.149,52,42.869,52,43.618z M41.447,23.762l6.325,1.355L42,26.691V26  C42,25.191,41.789,24.438,41.447,23.762z"/><text x="0" y="79" fill="#000000" font-size="5px" font-weight="bold" font-family="'Helvetica Neue', Helvetica, Arial-Unicode, Arial, Sans-serif">Created by Eucalyp</text><text x="0" y="84" fill="#000000" font-size="5px" font-weight="bold" font-family="'Helvetica Neue', Helvetica, Arial-Unicode, Arial, Sans-serif">from the Noun Project</text></svg>