<svg xmlns:dc="http://purl.org/dc/elements/1.1/" xmlns:cc="http://creativecommons.org/ns#" xmlns:rdf="http://www.w3.org/1999/02/22-rdf-syntax-ns#" xmlns:svg="http://www.w3.org/2000/svg" xmlns="http://www.w3.org/2000/svg" xmlns:sodipodi="http://sodipodi.sourceforge.net/DTD/sodipodi-0.dtd" xmlns:inkscape="http://www.inkscape.org/namespaces/inkscape" version="1.1" x="0px" y="0px" viewBox="0 0 100 125"><g transform="translate(0,-952.36218)"><path style="font-size:medium;font-style:normal;font-variant:normal;font-weight:normal;font-stretch:normal;text-indent:0;text-align:start;text-decoration:none;line-height:normal;letter-spacing:normal;word-spacing:normal;text-transform:none;direction:ltr;block-progression:tb;writing-mode:lr-tb;text-anchor:start;baseline-shift:baseline;opacity:1;color:#000000;fill:#000000;fill-opacity:1;stroke:none;stroke-width:6;marker:none;visibility:visible;display:inline;overflow:visible;enable-background:accumulate;font-family:Sans;-inkscape-font-specification:Sans" d="M 58 5 C 49.644756 5 42.383635 9.23727 37.84375 15.5625 C 36.609865 15.22846 35.34249 15 34 15 C 27.255913 15 21.741376 19.59273 19.875 25.75 C 11.322477 28.02279 5 35.76465 5 45 C 5 56.01012 13.98983 65 25 65 L 75 65 C 86.01017 65 95 56.01012 95 45 C 95 36.70052 89.903925 29.58025 82.65625 26.5625 C 80.959785 14.41338 70.594604 5 58 5 z M 58 11 C 68.153526 11 76.392349 18.91511 76.96875 28.90625 A 3.0003 3.0003 0 0 0 79.09375 31.59375 C 84.818073 33.33763 89 38.65831 89 45 C 89 52.76752 82.767512 59 75 59 L 25 59 C 17.232488 59 11 52.76752 11 45 C 11 38.0309 16.037897 32.33084 22.65625 31.21875 A 3.0003 3.0003 0 0 0 25.125 28.6875 C 25.766733 24.33708 29.452546 21 34 21 C 35.316586 21 36.545278 21.2977 37.6875 21.8125 A 3.0003 3.0003 0 0 0 41.5 20.5625 C 44.776003 14.85224 50.917796 11 58 11 z M 36.96875 67.9375 A 3.0003 3.0003 0 0 0 34 71 L 34 85 A 3.0003 3.0003 0 1 0 40 85 L 40 71 A 3.0003 3.0003 0 0 0 36.96875 67.9375 z M 62.96875 67.9375 A 3.0003 3.0003 0 0 0 60 71 L 60 85 A 3.0003 3.0003 0 1 0 66 85 L 66 71 A 3.0003 3.0003 0 0 0 62.96875 67.9375 z M 22.96875 74.9375 A 3.0003 3.0003 0 0 0 20 78 L 20 92 A 3.0003 3.0003 0 1 0 26 92 L 26 78 A 3.0003 3.0003 0 0 0 22.96875 74.9375 z M 49.96875 74.9375 A 3.0003 3.0003 0 0 0 47 78 L 47 92 A 3.0003 3.0003 0 1 0 53 92 L 53 78 A 3.0003 3.0003 0 0 0 49.96875 74.9375 z M 76.96875 74.9375 A 3.0003 3.0003 0 0 0 74 78 L 74 92 A 3.0003 3.0003 0 1 0 80 92 L 80 78 A 3.0003 3.0003 0 0 0 76.96875 74.9375 z " transform="translate(0,952.36218)"/></g><text x="0" y="115" fill="#000000" font-size="5px" font-weight="bold" font-family="'Helvetica Neue', Helvetica, Arial-Unicode, Arial, Sans-serif">Created by Icons Bazaar</text><text x="0" y="120" fill="#000000" font-size="5px" font-weight="bold" font-family="'Helvetica Neue', Helvetica, Arial-Unicode, Arial, Sans-serif">from the Noun Project</text></svg>