<svg xmlns="http://www.w3.org/2000/svg" xmlns:xlink="http://www.w3.org/1999/xlink" version="1.1" x="0px" y="0px" viewBox="0 0 595.3 1052.375" enable-background="new 0 0 595.3 841.9" xml:space="preserve"><g><g><path fill="#000000" d="M508.2,389.1c0-10.2-8.3-18.5-18.6-18.5H175.5c-14.7,0-26.7-12.2-26.7-26.8c0-14.8,12-26.8,26.7-26.8    c10.2,0,18.6-8.2,18.6-18.5c0-10.2-8.3-18.6-18.6-18.6c-35.2,0-63.8,28.6-63.8,63.9c0,35.1,28.6,63.7,63.8,63.7h314.1    C499.8,407.5,508.2,399.3,508.2,389.1z"/><path fill="#000000" d="M379.5,333.5h147.2c10.2,0,18.6-8.4,18.6-18.6c0-10.3-8.3-18.5-18.6-18.5H379.5c-14.7,0-26.7-12-26.7-26.8    c0-14.6,12-26.8,26.7-26.8c10.2,0,18.6-8.2,18.6-18.5c0-10.3-8.3-18.6-18.6-18.6c-35.2,0-63.8,28.8-63.8,63.9    C315.7,304.9,344.3,333.5,379.5,333.5z"/><path fill="#000000" d="M530.2,444.6H271.7c-35.2,0-63.8,28.6-63.8,63.9c0,35.1,28.6,63.9,63.8,63.9c10.2,0,18.6-8.4,18.6-18.6    c0-10.2-8.3-18.5-18.6-18.5c-14.7,0-26.7-12.2-26.7-26.8c0-14.8,12-26.8,26.7-26.8h258.5c10.2,0,18.6-8.2,18.6-18.5    C548.7,453,540.4,444.6,530.2,444.6z"/></g></g><text x="0" y="856.9" fill="#000000" font-size="5px" font-weight="bold" font-family="'Helvetica Neue', Helvetica, Arial-Unicode, Arial, Sans-serif">Created by billy bob</text><text x="0" y="861.9" fill="#000000" font-size="5px" font-weight="bold" font-family="'Helvetica Neue', Helvetica, Arial-Unicode, Arial, Sans-serif">from the Noun Project</text></svg>