<svg xmlns="http://www.w3.org/2000/svg" xmlns:xlink="http://www.w3.org/1999/xlink" version="1.1" x="0px" y="0px" viewBox="0 0 70 87.5" enable-background="new 0 0 70 70" xml:space="preserve"><g><g><g><path d="M23.6875,20.2325c-2.2627,0.5713-3.9248,2.4326-4.2354,4.7412c-0.0732,0.5469,0.3105,1.0508,0.8579,1.124     c0.0454,0.0059,0.0903,0.0088,0.1348,0.0088c0.4927,0,0.9224-0.3643,0.9897-0.8672c0.1978-1.4707,1.2998-2.7031,2.7422-3.0674     c0.5356-0.1357,0.8604-0.6787,0.7251-1.2148C24.7661,20.4219,24.2227,20.0987,23.6875,20.2325z"/><path d="M52.5347,5.9463H46.773c-0.5527,0-1,0.4473-1,1v3.5381c0,0.5527,0.4473,1,1,1h5.7617c0.5527,0,1-0.4473,1-1V6.9463     C53.5347,6.3936,53.0874,5.9463,52.5347,5.9463z M51.5347,9.4844H47.773V7.9463h3.7617V9.4844z"/><circle cx="42.0453" cy="8.7153" r="1.4136"/><circle cx="36.7417" cy="8.7153" r="1.4136"/><path d="M65.4087,33.0127l-1.4678-4.6357c-0.1318-0.416-0.5176-0.6982-0.9531-0.6982h-3.1182c0-8.3689,0-15.2569,0-23.5996V4     c0-0.5527-0.4473-1-1-1H11.1323c-0.5522,0-1,0.4473-1,1v0.0791c0,8.3424,0,15.2301,0,23.5996H8.1919     c-0.3599,0-0.6924,0.1934-0.8696,0.5068l-2.6294,4.6357c-0.0522,0.092-0.0837,0.1907-0.1046,0.2913     c-0.0042,0.0201-0.0045,0.0393-0.0074,0.0596c-0.0201,0.1384-0.0176,0.2791,0.0209,0.4146     c0.0005,0.002-0.0003,0.0042,0.0003,0.0061l7.7271,26.7158v2.8633c0,2.1104,1.7173,3.8281,3.8286,3.8281h37.7031     c2.1104,0,3.8281-1.7178,3.8281-3.8281v-2.8616l7.7275-26.7175C65.4379,33.518,65.4374,33.1036,65.4087,33.0127z M12.1323,5.0791     h45.7373v7.2715H12.1323V5.0791z M12.1323,14.3506h45.7373v13.3281H54.037c-0.25-3.4729-3.1486-6.2156-6.6754-6.2156     c-1.17,0-2.27,0.3-3.23,0.8301c-1.45-2.2001-3.94-3.66-6.77-3.66c-1.86,0-3.57,0.63-4.94,1.6801     c-1.67-2.25-4.34-3.7101-7.35-3.7101c-5.03,0-9.13,4.09-9.13,9.12c0,0.677,0.0999,1.3239,0.2413,1.9556h-4.0505V14.3506z      M18.2213,27.6787c-0.1793-0.6213-0.2798-1.2773-0.2798-1.9556c0-3.9299,3.2-7.12,7.13-7.12     c5.0631,0,8.0658,4.8637,6.8502,9.0756H18.2213z M34.1536,24.7997c0.6328-0.7855,2.0664-1.3961,3.0363-1.2303     c0.5449,0.0908,1.0615-0.2715,1.1553-0.8154s-0.271-1.0615-0.8154-1.1553c-1.2614-0.2174-2.7523,0.2146-3.8891,1.0007     c-0.0645-0.1764-0.1242-0.355-0.1992-0.5262c1.06-0.9,2.43-1.4399,3.92-1.4399c6.5852,0,5.9252,6.9455,5.963,7.0455h-9.3643     c0.1414-0.6317,0.2412-1.2786,0.2412-1.9556C34.2016,25.4109,34.1841,25.1033,34.1536,24.7997z M45.4478,27.2447     c0.4158-0.4531,1.2261-0.8306,1.913-0.8306c0.5527,0,1-0.4473,1-1s-0.4473-1-1-1c-0.6706,0-1.4183,0.1951-2.0986,0.5352     c-0.0668-0.2908-0.1435-0.5779-0.2407-0.8561c0.69-0.4,1.49-0.63,2.34-0.63c2.4241,0,4.4042,1.8552,4.6509,4.2156H45.413     C45.4295,27.5348,45.439,27.3907,45.4478,27.2447z M8.7744,29.6787h53.481l0.835,2.6357H7.2793L8.7744,29.6787z M55.689,63.1719     c0,1.0078-0.8203,1.8281-1.8281,1.8281H16.1577c-1.0083,0-1.8286-0.8203-1.8286-1.8281V61.167H55.689V63.1719z M55.937,59.167     h-41.856L6.8926,34.3145h56.2329L55.937,59.167z"/><path d="M27.8203,43.0694c0.1455,0.3916,0.5195,0.6514,0.9375,0.6514h12.5024c0.418,0,0.7915-0.2598,0.9375-0.6514l1.6191-4.3555     c0.1143-0.3076,0.0703-0.6504-0.1162-0.9189c-0.1875-0.2695-0.4941-0.4297-0.8213-0.4297H27.1392     c-0.3276,0-0.6343,0.1602-0.8213,0.4287c-0.1865,0.2695-0.23,0.6123-0.1162,0.9199L27.8203,43.0694z M41.4409,39.3653     l-0.876,2.3555H29.4531l-0.8755-2.3555H41.4409z"/></g></g></g><text x="0" y="85" fill="#000000" font-size="5px" font-weight="bold" font-family="'Helvetica Neue', Helvetica, Arial-Unicode, Arial, Sans-serif">Created by Vectors Point</text><text x="0" y="90" fill="#000000" font-size="5px" font-weight="bold" font-family="'Helvetica Neue', Helvetica, Arial-Unicode, Arial, Sans-serif">from the Noun Project</text></svg>