<svg xmlns="http://www.w3.org/2000/svg" data-name="Layer 1" viewBox="0 0 64 80" x="0px" y="0px"><title>Weather-icons</title><path d="M44.79,11.61a13.15,13.15,0,0,0-3.13.38,13.17,13.17,0,0,0-24.94,5h-.18a10.53,10.53,0,0,0,0,21.06H35.8l-7.36,6.54A2,2,0,0,0,29.77,48h4.44l-9.47,7.74a2,2,0,0,0,2.54,3.1l13.8-11.29A2,2,0,0,0,39.81,44H35l6.79-6h3a13.2,13.2,0,1,0,0-26.39Zm0,22.39H16.54a6.53,6.53,0,0,1,0-13.06,6.17,6.17,0,0,1,1.36.16,1.92,1.92,0,0,0,.71.19,6.55,6.55,0,0,1,3.85,3.42A2,2,0,1,0,26.08,23a10.52,10.52,0,0,0-5.4-5.2,9.19,9.19,0,0,1,18.38.06,9.09,9.09,0,0,1-.72,3.58,2,2,0,0,0,1.06,2.62,2,2,0,0,0,.78.16A2,2,0,0,0,42,23a13.29,13.29,0,0,0,1-5.14,14.08,14.08,0,0,0-.17-2.06A9.19,9.19,0,1,1,44.79,34Zm-21,13.19a2,2,0,0,1-.61,2.22l-7.76,6.34a2,2,0,0,1-2.53-3.1l3.42-2.79h-2.3a2,2,0,0,1-1.33-3.49l6.14-5.46a2,2,0,1,1,2.66,3l-2.21,2H22A2,2,0,0,1,23.83,47.19Z"/><text x="0" y="79" fill="#000000" font-size="5px" font-weight="bold" font-family="'Helvetica Neue', Helvetica, Arial-Unicode, Arial, Sans-serif">Created by Akriti Bhusal</text><text x="0" y="84" fill="#000000" font-size="5px" font-weight="bold" font-family="'Helvetica Neue', Helvetica, Arial-Unicode, Arial, Sans-serif">from the Noun Project</text></svg>