<svg xmlns="http://www.w3.org/2000/svg" xmlns:xlink="http://www.w3.org/1999/xlink" version="1.1" x="0px" y="0px" viewBox="0 0 110 137.5" enable-background="new 0 0 110 110" xml:space="preserve"><g><path d="M92.4,34.394c-3.221-6.98-10.25-11.832-18.42-11.832c-1.53,0-3.011,0.191-4.44,0.502C64.96,16.967,57.7,13,49.49,13   c-10.28,0-19.1,6.197-22.97,15.057c-1.21-0.262-2.47-0.412-3.75-0.412C12.96,27.645,5,35.609,5,45.433   c0,9.823,7.96,17.789,17.77,17.789c0.07,0,0.13-0.01,0.2-0.01v0.01h1.99c-0.62,1.517-1.75,4.179-3.78,8.848   c-0.44,1.026,0.02,2.201,1.03,2.652c0.26,0.11,0.54,0.161,0.8,0.161c0.77,0,1.51-0.441,1.84-1.205   c2.72-6.268,3.91-9.091,4.43-10.456h26.6c-0.63,1.517-1.75,4.179-3.78,8.848c-0.44,1.026,0.02,2.201,1.03,2.652   c0.26,0.11,0.53,0.161,0.8,0.161c0.77,0,1.51-0.441,1.83-1.205c2.721-6.268,3.91-9.081,4.431-10.456H86.8   c-0.63,1.517-1.76,4.179-3.79,8.848c-0.439,1.026,0.021,2.201,1.04,2.652c0.26,0.11,0.53,0.161,0.8,0.161   c0.771,0,1.5-0.441,1.83-1.205c2.721-6.268,3.91-9.081,4.431-10.456h0.93v-0.08C99.32,62.388,105,56.23,105,48.737   C105,41.375,99.5,35.308,92.4,34.394z M91.63,59.144l-0.56,0.061h-64.1v-0.01h-4c-0.1,0-0.2,0-0.3,0.01   C15.12,59.153,9,52.996,9,45.433c0-7.594,6.18-13.771,13.77-13.771c0.96,0,1.93,0.11,2.9,0.321l3.2,0.683l1.31-2.993   c3.36-7.694,10.94-12.656,19.31-12.656c6.68,0,12.819,3.083,16.85,8.467l1.55,2.069l2.521-0.563c1.21-0.271,2.41-0.412,3.57-0.412   c6.319,0,12.13,3.737,14.789,9.502L89.7,38.09l2.189,0.281c5.19,0.673,9.11,5.133,9.11,10.366   C101,54.121,96.97,58.591,91.63,59.144z"/><path d="M19.79,80.256c-1.01-0.441-2.19,0.01-2.64,1.026c-1.7,3.876-3.41,7.743-4.87,11.049c-0.45,1.014,0,2.199,1.01,2.65   c0.27,0.121,0.54,0.17,0.81,0.17c0.77,0,1.5-0.441,1.83-1.194c1.47-3.306,3.18-7.172,4.88-11.049   C21.26,81.895,20.8,80.709,19.79,80.256z"/><path d="M40.86,67.34c-0.99-0.432-2.2,0.051-2.63,1.043c-1.06,2.473-2.41,5.576-4,9.223c-0.12,0.261-0.18,0.532-0.17,0.822   c0,0.794,0.47,1.507,1.19,1.818c0.26,0.11,0.53,0.171,0.81,0.171c0.79,0,1.51-0.471,1.83-1.195c1.66-3.808,2.98-6.83,4.02-9.239   c0.21-0.503,0.22-1.046,0.02-1.548C41.73,67.932,41.35,67.55,40.86,67.34z"/><path d="M33.63,83.942c-0.93-0.412-2.05-0.02-2.55,0.834v-0.03l-0.09,0.222c-1.45,3.294-2.86,6.469-4.07,9.199   c-0.12,0.263-0.18,0.543-0.17,0.834c0,0.784,0.47,1.507,1.18,1.818C28.19,96.94,28.47,97,28.75,97c0.79,0,1.5-0.471,1.82-1.195   c1.45-3.264,2.82-6.357,4.08-9.21c0.21-0.492,0.23-1.034,0.03-1.536C34.49,84.557,34.11,84.164,33.63,83.942z"/><path d="M50.71,80.256c-1.02-0.441-2.2,0.01-2.64,1.026c-1.7,3.876-3.41,7.743-4.88,11.049c-0.44,1.014,0.01,2.199,1.02,2.65   c0.26,0.121,0.54,0.17,0.81,0.17c0.77,0,1.5-0.441,1.83-1.194c1.46-3.306,3.17-7.172,4.88-11.049   C52.17,81.895,51.72,80.709,50.71,80.256z"/><path d="M71.78,67.34c-1-0.432-2.21,0.051-2.63,1.043l-0.03,0.071c-1.101,2.552-2.43,5.624-3.98,9.151   c-0.109,0.261-0.17,0.542-0.17,0.822c0.011,0.794,0.48,1.507,1.2,1.818c0.25,0.122,0.521,0.171,0.8,0.171   c0.79,0,1.511-0.471,1.83-1.195c1.66-3.786,2.97-6.809,4.021-9.239c0.21-0.503,0.22-1.046,0.029-1.548   C72.65,67.941,72.27,67.55,71.78,67.34z"/><path d="M64.54,83.942c-0.92-0.412-2.05-0.02-2.54,0.834v-0.03l-0.1,0.222c-1.57,3.565-2.94,6.658-4.061,9.199   c-0.12,0.272-0.18,0.543-0.18,0.834c0.01,0.784,0.47,1.496,1.189,1.818C59.11,96.94,59.38,97,59.66,97   c0.79,0,1.51-0.471,1.83-1.195c1.2-2.701,2.59-5.855,4.069-9.21C66.01,85.58,65.55,84.396,64.54,83.942z"/><path d="M81.62,80.256c-1.01-0.441-2.19,0.01-2.64,1.026c-1.7,3.876-3.41,7.743-4.87,11.049c-0.45,1.014,0.01,2.199,1.02,2.65   c0.26,0.121,0.54,0.17,0.811,0.17c0.76,0,1.5-0.441,1.829-1.194c1.461-3.306,3.171-7.172,4.87-11.049   C83.09,81.895,82.63,80.709,81.62,80.256z"/></g><text x="0" y="125" fill="#000000" font-size="5px" font-weight="bold" font-family="'Helvetica Neue', Helvetica, Arial-Unicode, Arial, Sans-serif">Created by Trevor Dsouza</text><text x="0" y="130" fill="#000000" font-size="5px" font-weight="bold" font-family="'Helvetica Neue', Helvetica, Arial-Unicode, Arial, Sans-serif">from the Noun Project</text></svg>