<svg xmlns="http://www.w3.org/2000/svg" viewBox="0 0 100 125" x="0px" y="0px"><title>weath</title><g data-name="Layer 2"><path d="M50,64A14,14,0,1,1,64,50,14,14,0,0,1,50,64Zm0-26A12,12,0,1,0,62,50,12,12,0,0,0,50,38Z"/><path d="M66,35a1,1,0,0,1-.71-1.71l3.66-3.66a1,1,0,0,1,1.41,1.41l-3.66,3.66A1,1,0,0,1,66,35Z"/><path d="M30.38,70.62a1,1,0,0,1-.71-1.71l3.66-3.66a1,1,0,0,1,1.41,1.41l-3.66,3.66A1,1,0,0,1,30.38,70.62Z"/><path d="M69.62,70.62a1,1,0,0,1-.71-.29l-3.66-3.66a1,1,0,0,1,1.41-1.41l3.66,3.66a1,1,0,0,1-.71,1.71Z"/><path d="M34,35a1,1,0,0,1-.71-.29l-3.66-3.66a1,1,0,0,1,1.41-1.41l3.66,3.66A1,1,0,0,1,34,35Z"/><path d="M78,51H73a1,1,0,0,1,0-2h5a1,1,0,0,1,0,2Z"/><path d="M27,51H22a1,1,0,0,1,0-2h5a1,1,0,0,1,0,2Z"/><path d="M50,79a1,1,0,0,1-1-1V73a1,1,0,0,1,2,0v5A1,1,0,0,1,50,79Z"/><path d="M50,28a1,1,0,0,1-1-1V22a1,1,0,0,1,2,0v5A1,1,0,0,1,50,28Z"/></g><text x="0" y="115" fill="#000000" font-size="5px" font-weight="bold" font-family="'Helvetica Neue', Helvetica, Arial-Unicode, Arial, Sans-serif">Created by Dot Studio</text><text x="0" y="120" fill="#000000" font-size="5px" font-weight="bold" font-family="'Helvetica Neue', Helvetica, Arial-Unicode, Arial, Sans-serif">from the Noun Project</text></svg>