<svg xmlns="http://www.w3.org/2000/svg" data-name="Layer 1" viewBox="0 0 100 125" x="0px" y="0px"><title>44</title><g data-name="Group"><path data-name="Path" d="M83.3,31.1c-2.1-1.7-4.6-3.7-9.3-3.7s-7.1,2-9.3,3.7-3.5,2.8-6.7,2.8-4.8-1.2-6.7-2.8-4.6-3.7-9.3-3.7-7.1,2-9.3,3.7-3.5,2.8-6.7,2.8-4.8-1.2-6.7-2.8-4.6-3.7-9.3-3.7H8v4h2c3.3,0,4.8,1.2,6.7,2.8s4.6,3.7,9.3,3.7,7.1-2,9.3-3.7,3.5-2.8,6.7-2.8,4.8,1.2,6.7,2.8,4.6,3.7,9.3,3.7,7.1-2,9.3-3.7,3.5-2.8,6.7-2.8,4.8,1.2,6.7,2.8,4.6,3.7,9.3,3.7h2v-4H90C86.7,33.9,85.2,32.7,83.3,31.1Z"/><path data-name="Path" d="M83.3,48.4c-2.1-1.7-4.6-3.7-9.3-3.7s-7.1,2-9.3,3.7-3.5,2.8-6.7,2.8-4.8-1.2-6.7-2.8-4.6-3.7-9.3-3.7-7.1,2-9.3,3.7-3.5,2.8-6.7,2.8-4.8-1.2-6.7-2.8-4.6-3.7-9.3-3.7H8v4h2c3.3,0,4.8,1.2,6.7,2.8s4.6,3.7,9.3,3.7,7.1-2,9.3-3.7,3.5-2.8,6.7-2.8,4.8,1.2,6.7,2.8,4.6,3.7,9.3,3.7,7.1-2,9.3-3.7,3.5-2.8,6.7-2.8,4.8,1.2,6.7,2.8,4.6,3.7,9.3,3.7h2v-4H90C86.7,51.2,85.2,50,83.3,48.4Z"/><path data-name="Path" d="M83.3,65.8c-2.1-1.7-4.6-3.7-9.3-3.7s-7.1,2-9.3,3.7-3.5,2.8-6.7,2.8-4.8-1.2-6.7-2.8-4.6-3.7-9.3-3.7-7.1,2-9.3,3.7-3.5,2.8-6.7,2.8-4.8-1.2-6.7-2.8-4.6-3.7-9.3-3.7H8v4h2c3.3,0,4.8,1.2,6.7,2.8s4.6,3.7,9.3,3.7,7.1-2,9.3-3.7,3.5-2.8,6.7-2.8,4.8,1.2,6.7,2.8,4.6,3.7,9.3,3.7,7.1-2,9.3-3.7,3.5-2.8,6.7-2.8,4.8,1.2,6.7,2.8,4.6,3.7,9.3,3.7h2v-4H90C86.7,68.6,85.2,67.3,83.3,65.8Z"/></g><text x="0" y="115" fill="#000000" font-size="5px" font-weight="bold" font-family="'Helvetica Neue', Helvetica, Arial-Unicode, Arial, Sans-serif">Created by Astonish</text><text x="0" y="120" fill="#000000" font-size="5px" font-weight="bold" font-family="'Helvetica Neue', Helvetica, Arial-Unicode, Arial, Sans-serif">from the Noun Project</text></svg>