<svg xmlns="http://www.w3.org/2000/svg" xmlns:xlink="http://www.w3.org/1999/xlink" version="1.1" x="0px" y="0px" viewBox="0 0 1000 1250" enable-background="new 0 0 1000 1000" xml:space="preserve"><g><path d="M838.364,763.689l56.787-61.19l-29.941-56.793l-26.846,29.402v-75.133c27.155-19.776,45.579-50.85,48.289-86.256   C928.991,512.315,963,477.437,963,434.764c0-20.724-7.968-40.305-22.437-55.136c-12.141-12.445-27.735-20.405-44.668-22.953   c-2.404-52.744-46.068-94.911-99.396-94.911c-32.702,0-63.156,16.114-81.653,42.636c-8.323-4.175-17.079-7.346-26.165-9.472   c-18.523-43.989-62.104-73.165-110.182-73.165c-43.454,0-82.753,23.229-103.828,60.278c-6.285-22.511-19.236-42.85-37.225-58.165   c-21.294-18.129-48.444-28.114-76.447-28.114c-63.263,0-115.057,50.04-117.879,112.618c-19.398,7.661-35.766,21.552-46.523,39.42   c-14.569-6.59-30.49-10.038-46.598-10.038c-62.309,0-113,50.691-113,113c0,50.199,32.906,92.85,78.277,107.535v227.465H47v20h906   v-20H838.364V763.689z M860.79,680.208l10.059,19.078l-52.484,56.552v29.926h-31.588V621.189   c11.109-1.676,21.715-4.905,31.588-9.463v114.95L860.79,680.208z M204.364,549.842c1.606,1.846,3.286,3.613,5.029,5.306v128.759   l43.879-43.88l11.039,18.126l-54.917,53.386v74.226h-24.648V558.312C191.519,556.124,198.086,553.295,204.364,549.842z    M229.393,719.989l60.296-58.614l-32.569-53.481l-27.728,27.728v-65.942c12.35,6.526,26.256,10.085,40.607,10.085   c21.583,0,41.796-8.063,57.302-21.634v227.634h-97.909V719.989z M347.302,532.644c0.557-1.076,1.099-2.162,1.612-3.266   c8.632,5.685,17.795,10.319,27.359,13.873v242.513h-28.971V532.644z M396.273,548.977c5.633,1.15,11.366,1.949,17.176,2.388   c3.985,11.166,9.374,21.824,15.936,31.718v202.682h-33.112V548.977z M449.385,607.242c4.397,4.293,9.051,8.329,13.966,12.038   c8.391,6.331,17.315,11.676,26.649,16.009v150.475h-40.615V607.242z M510,642.83c5.413,1.593,10.928,2.868,16.522,3.823v139.11H510   V642.83z M546.522,648.675c1.655,0.055,3.313,0.089,4.978,0.089c44.943,0,86.852-20.75,114.293-54.877v97.137l-38.017-15.124   l-34.193,43.237l72.21,36.758v29.869H546.522V648.675z M624.417,712.391l9.807-12.401l51.569,20.515V587.96   c10.504,10.468,22.881,18.845,36.398,24.732v173.071h-36.398v-42.131L624.417,712.391z M742.191,619.362   c7.99,1.89,16.227,2.949,24.585,3.117v163.284h-24.585V619.362z M57,450.764c0-51.28,41.72-93,93-93   c16.099,0,31.963,4.18,45.877,12.088l9.456,5.375l4.563-9.874c8.95-19.368,25.738-34.054,46.061-40.293l7.185-2.206l-0.128-7.889   c-0.007-0.4-0.014-0.8-0.014-1.202c0-54.037,43.963-98,98-98c47.885,0,88.503,34.198,96.58,81.314l0.981,5.722l5.455,1.985   c3.014,1.097,6.062,2.356,9.059,3.743l9.458,4.376l3.982-9.631c15.451-37.366,51.558-61.511,91.985-61.511   c41.603,0,79.163,26.235,93.463,65.283l1.962,5.355l5.608,1.039c11.912,2.205,23.2,6.522,33.55,12.831l8.875,5.41l5.063-9.077   c14.052-25.191,40.674-40.84,69.479-40.84c43.836,0,79.5,35.664,79.5,79.5c0,1.333-0.034,2.695-0.102,4.049l-0.511,10.22   l10.229,0.275C917.794,376.674,943,402.57,943,434.764c0,32.532-26.468,59-59,59c-2.002,0-4.023-0.102-6.009-0.303l-11.137-1.127   l0.138,11.686c0.004,0.206,0.008,0.412,0.008,0.619c0,53.969-43.906,97.875-97.875,97.875c-34.752,0-67.202-18.691-84.686-48.78   l-9.727-16.737l-8.021,17.618c-20.507,45.044-65.723,74.149-115.191,74.149c-55.353,0-105.162-36.979-121.125-89.928l-2.09-6.932   l-7.237-0.179c-25.989-0.642-50.404-9.627-70.607-25.984l-11.83-9.577l-4.094,14.659c-8.048,28.815-34.578,48.94-64.517,48.94   c-21.899,0-42.464-10.757-55.011-28.775l-5.582-8.016l-8.145,5.393c-15.216,10.073-32.942,15.398-51.262,15.398   C98.72,543.764,57,502.044,57,450.764z M135.277,562.805c4.82,0.63,9.733,0.959,14.723,0.959c4.959,0,9.882-0.328,14.745-0.964   v222.964h-29.468V562.805z"/><path d="M239.356,439.07c0-0.103-0.008-0.204-0.008-0.307c0-33.636,27.364-61,61-61s61,27.364,61,61   c0,2.413-0.156,4.788-0.43,7.129c6.688,0.156,13.378,0.277,20.069,0.379c0.229-2.474,0.361-4.975,0.361-7.508   c0-44.664-36.336-81-81-81c-44.07,0-80.006,35.383-80.955,79.229c3.086,0.348,6.172,0.696,9.261,1.017   C232.22,438.38,235.788,438.729,239.356,439.07z"/><path d="M495.355,394.816c0-0.103-0.008-0.204-0.008-0.307c0-33.636,27.365-61,61-61c33.637,0,61,27.364,61,61   c0,2.413-0.156,4.788-0.43,7.129c6.688,0.156,13.379,0.277,20.069,0.379c0.229-2.474,0.36-4.975,0.36-7.508   c0-44.664-36.336-81-81-81c-44.069,0-80.006,35.383-80.955,79.229c3.086,0.348,6.172,0.696,9.261,1.017   C488.22,394.126,491.788,394.476,495.355,394.816z"/><path d="M685.516,441.983c0.059-0.085,0.109-0.172,0.168-0.256c19.154-27.649,57.232-34.56,84.88-15.406   c27.65,19.155,34.561,57.231,15.406,84.88c-1.374,1.983-2.854,3.847-4.413,5.615c5.409,3.937,10.84,7.848,16.281,11.74   c1.598-1.903,3.13-3.885,4.572-5.966c25.434-36.715,16.258-87.276-20.457-112.71c-36.226-25.096-85.915-16.475-111.664,19.027   c2.338,2.043,4.677,4.086,7.034,6.11C680.044,437.352,682.777,439.671,685.516,441.983z"/><path d="M559.018,449.594c-43.361,7.87-72.401,49.102-65.505,92.412c3.098-0.208,6.196-0.418,9.294-0.653   c3.575-0.272,7.147-0.565,10.719-0.867c-0.019-0.102-0.044-0.198-0.063-0.3c-6.007-33.096,16.032-64.907,49.126-70.913   c33.096-6.007,64.906,16.03,70.913,49.126c0.431,2.374,0.701,4.738,0.85,7.091c6.609-1.041,13.215-2.116,19.814-3.211   c-0.216-2.476-0.533-4.96-0.985-7.452C645.204,470.881,602.964,441.617,559.018,449.594z"/></g><text x="0" y="1015" fill="#000000" font-size="5px" font-weight="bold" font-family="'Helvetica Neue', Helvetica, Arial-Unicode, Arial, Sans-serif">Created by Creative Mania</text><text x="0" y="1020" fill="#000000" font-size="5px" font-weight="bold" font-family="'Helvetica Neue', Helvetica, Arial-Unicode, Arial, Sans-serif">from the Noun Project</text></svg>