<svg id="Ebene_1" data-name="Ebene 1" xmlns="http://www.w3.org/2000/svg" viewBox="0 0 315.11 92.55"><defs><style>.cls-1{fill:none;}</style></defs><path class="cls-1" d="M324.45,365c7.78,0,11.72-6.12,11.72-12.68H312.73C312.73,358.9,316.67,365,324.45,365Z" transform="translate(-148.47 -309.3)"/><path class="cls-1" d="M274.24,365C282,365,286,358.9,286,352.34H262.52C262.52,358.9,266.46,365,274.24,365Z" transform="translate(-148.47 -309.3)"/><path d="M168.49,347.22c-5.5-.35-8-1.92-8-4.72s2.8-4.28,7.87-4.28c4.11,0,7.61,1,10.67,3.84l5.94-7c-5-4.37-10.05-5.68-16.78-5.68-7.87,0-18.19,3.49-18.19,13.46,0,9.79,9.7,12.77,17.84,13.38,6.12.35,8.56,1.57,8.56,4.55,0,3.14-3.75,5.24-7.78,5.15-4.81-.08-11.8-2.62-14.86-6l-5.25,7.61c6.3,6.55,13.12,7.69,19.94,7.69,12.33,0,18.53-6.56,18.53-14.16C186.94,349.58,176.62,347.75,168.49,347.22Z" transform="translate(-148.47 -309.3)"/><path d="M217.92,329.91c-5.42,0-9.79,2.19-14.16,6.47l-.71-5.86h-9.52v43.2H204.1v-22c0-6.56,4.46-12.06,11-12.06,6.82,0,10.41,5,10.41,11.54v22.56h10.66V351.07C236.19,337.52,228.06,329.91,217.92,329.91Z" transform="translate(-148.47 -309.3)"/><path d="M274.24,365c-7.78,0-11.72-6.12-11.72-12.68H251.86c0,12.42,8.39,22.47,22.38,22.47s22.47-10.05,22.47-22.47H286C286,358.9,282,365,274.24,365Z" transform="translate(-148.47 -309.3)"/><path d="M324.45,365c-7.78,0-11.72-6.12-11.72-12.68H302.07c0,12.42,8.39,22.47,22.38,22.47s22.47-10.05,22.47-22.47H336.17C336.17,358.9,332.23,365,324.45,365Z" transform="translate(-148.47 -309.3)"/><polygon points="251.89 25.39 251.89 20.17 216.33 20.17 216.33 30.16 235.96 30.16 214.71 59.96 214.71 64.55 252.07 64.55 252.07 53.74 231.46 53.74 251.89 25.39"/><path d="M406.14,366.93c0,8.55,13,8.55,13,0S406.14,358.38,406.14,366.93Z" transform="translate(-148.47 -309.3)"/><rect x="282.61" y="0.38" width="10.89" height="62.92"/><rect x="303.14" y="18.75" width="10.98" height="44.55"/><path d="M463.58,315.71c0-8.55-13-8.55-13,0S463.58,324.26,463.58,315.71Z" transform="translate(-148.47 -309.3)"/><path d="M314.58,383.51c-5.51,0-8.38,4.5-8.38,9.13s2.81,9.07,8.38,9.07,8.38-4.38,8.38-9.07S319.71,383.51,314.58,383.51Z" transform="translate(-148.47 -309.3)"/><polygon points="99.52 0 91.59 0 91.59 92.55 99.52 92.55 99.52 43.04 99.52 9.29 99.52 0"/><polygon points="201.19 9.29 201.19 43.04 201.19 92.55 209.12 92.55 209.12 0 201.19 0 201.19 9.29"/></svg>